<svg width="24" height="14" viewBox="0 0 24 14" fill="none" xmlns="http://www.w3.org/2000/svg">
<g id="formkit:arrowleft" clip-path="url(#clip0_5233_2716)">
<path id="Vector" d="M18.75 7.75H5.25C4.83 7.75 4.5 7.42 4.5 7C4.5 6.58 4.83 6.25 5.25 6.25H18.75C19.17 6.25 19.5 6.58 19.5 7C19.5 7.42 19.17 7.75 18.75 7.75Z" fill="black"/>
<path id="Vector_2" d="M9 13C8.90164 13.0012 8.80411 12.9818 8.71369 12.9431C8.62328 12.9043 8.54197 12.8471 8.475 12.775L3.225 7.525C2.925 7.225 2.925 6.76 3.225 6.46L8.475 1.225C8.775 0.925 9.24 0.925 9.54 1.225C9.84 1.525 9.84 1.99 9.54 2.29L4.815 7.015L9.54 11.74C9.84 12.04 9.84 12.505 9.54 12.805C9.39 12.955 9.195 13.03 9.015 13.03L9 13Z" fill="black"/>
</g>
<defs>
<clipPath id="clip0_5233_2716">
<rect width="24" height="13.5" fill="white" transform="translate(0 0.25)"/>
</clipPath>
</defs>
</svg>
